<?xml version="1.0" standalone="no"?>
<!DOCTYPE svg PUBLIC "-//W3C//DTD SVG 20010904//EN"
 "http://www.w3.org/TR/2001/REC-SVG-20010904/DTD/svg10.dtd">
<svg version="1.0" xmlns="http://www.w3.org/2000/svg"
 width="266.000000pt" height="266.000000pt" viewBox="0 0 266.000000 266.000000"
 preserveAspectRatio="xMidYMid meet">
<metadata>
Created by potrace 1.11, written by Peter Selinger 2001-2013
</metadata>
<g transform="translate(0.000000,266.000000) scale(0.100000,-0.100000)"
fill="#000000" stroke="none">
<path d="M1492 2461 c-29 -16 -74 -47 -100 -69 -26 -21 -73 -58 -106 -81 -55
-41 -62 -43 -140 -47 -56 -3 -95 0 -124 10 -132 47 -169 -126 -39 -185 55 -25
222 -27 272 -3 48 22 79 16 83 -18 2 -19 -4 -34 -22 -49 -13 -12 -30 -33 -36
-48 -13 -33 -103 -93 -133 -89 -12 2 -37 24 -57 52 -93 129 -95 131 -128 129
-24 -2 -36 4 -54 28 -91 120 -231 218 -312 219 -52 0 -145 -17 -230 -42 -112
-33 -196 -125 -255 -280 -37 -95 -45 -155 -31 -226 6 -31 16 -82 22 -112 12
-61 53 -130 122 -207 25 -28 46 -55 46 -61 0 -11 40 -40 85 -61 20 -10 68 -15
141 -15 l110 -1 55 -48 c52 -46 181 -117 212 -117 17 0 167 -99 167 -110 0
-17 64 -86 91 -98 25 -10 30 -10 35 3 3 8 -3 26 -14 39 -26 33 -45 107 -39
148 18 122 41 193 74 228 20 22 55 77 88 143 33 64 45 70 128 71 52 1 61 4 97
39 33 31 40 44 40 76 0 69 -78 138 -143 126 -23 -4 -47 2 -86 22 -30 16 -54
33 -54 38 1 6 18 16 40 23 21 7 45 21 55 32 11 14 29 20 60 20 92 0 117 26 49
53 -41 17 -51 32 -51 77 0 44 -20 80 -49 87 -16 4 -52 -4 -101 -22 -130 -48
-215 -46 -275 7 -27 23 -35 38 -35 63 0 19 4 36 9 40 6 3 47 -4 92 -16 96 -25
161 -20 217 15 21 13 53 28 72 34 19 7 64 40 100 75 68 66 130 97 196 97 44 0
190 -70 242 -117 41 -36 43 -40 33 -67 -8 -18 -9 -61 -5 -117 9 -123 13 -120
-154 -117 -132 1 -160 -5 -130 -29 7 -6 49 -17 93 -25 60 -10 82 -19 90 -33 6
-11 19 -33 30 -49 l19 -29 -29 -23 c-17 -13 -45 -29 -62 -35 -22 -7 -33 -17
-33 -30 0 -29 39 -24 91 11 42 28 79 39 79 23 0 -12 87 -58 155 -84 33 -12 70
-29 82 -36 14 -9 49 -15 95 -15 l72 0 39 46 c43 50 56 55 79 29 12 -14 14 -29
8 -67 -4 -26 -12 -51 -17 -55 -6 -3 -15 -16 -22 -28 -9 -19 -8 -24 8 -33 11
-5 29 -10 41 -10 31 0 105 -49 92 -62 -7 -7 -21 -7 -43 1 -22 8 -36 8 -43 1
-15 -15 4 -29 53 -38 24 -4 42 -11 42 -17 -1 -10 -74 -13 -120 -4 -13 2 -26
-1 -28 -7 -6 -17 44 -34 102 -34 40 0 55 -4 55 -14 0 -28 -32 -40 -104 -41
-90 0 -145 25 -217 100 -51 53 -52 54 -123 60 -39 3 -82 6 -96 5 -14 0 -61 -2
-105 -3 -89 -2 -117 8 -141 54 -21 42 -18 76 11 95 29 19 58 12 72 -19 15 -31
126 -75 148 -57 8 7 15 18 15 24 -1 13 -63 46 -89 46 -10 0 -26 9 -37 21 -38
43 -66 50 -112 29 -23 -11 -42 -24 -42 -30 0 -6 -9 -23 -20 -38 -17 -23 -19
-32 -9 -59 11 -33 71 -88 126 -116 17 -9 34 -21 38 -27 10 -16 -24 -71 -55
-88 -16 -9 -40 -35 -54 -57 -14 -22 -35 -46 -45 -52 -11 -7 -25 -32 -31 -55
-6 -24 -22 -68 -35 -99 -36 -81 -33 -132 10 -199 19 -29 42 -77 51 -104 27
-81 74 -166 141 -255 18 -24 35 -51 38 -61 3 -10 19 -24 36 -31 27 -10 42 -9
108 8 62 16 76 23 76 39 0 16 -6 19 -45 17 -70 -3 -107 6 -141 34 -49 42 -103
123 -128 193 -24 65 -63 146 -102 207 -20 32 -20 35 -4 115 18 89 31 112 136
236 125 147 153 172 212 184 76 16 137 2 155 -35 17 -35 103 -92 162 -107 42
-12 138 -16 185 -8 18 3 20 -2 17 -46 -2 -27 -15 -72 -28 -99 -75 -146 -181
-156 -314 -29 -25 23 -61 47 -81 53 -32 10 -44 8 -97 -16 -74 -33 -104 -64
-132 -135 -39 -98 -8 -211 75 -274 52 -40 172 -87 243 -96 35 -4 68 -12 73
-17 6 -6 -6 -41 -36 -97 -25 -47 -45 -93 -45 -102 0 -19 -88 -114 -106 -114
-7 0 -22 -9 -32 -20 -28 -30 -133 -62 -181 -54 -31 5 -51 18 -87 57 -26 28
-52 65 -59 82 -8 16 -56 76 -109 133 -53 56 -96 106 -96 111 0 6 -23 36 -51
68 -77 87 -86 111 -94 246 -6 100 -10 119 -26 128 -22 11 -59 -4 -59 -24 0 -7
9 -49 21 -93 37 -142 8 -288 -65 -323 -44 -21 -153 -30 -193 -16 -45 15 -108
78 -145 142 -16 29 -62 83 -102 120 -40 38 -78 78 -84 90 -7 12 -22 25 -34 28
-13 4 -35 18 -49 31 -16 16 -47 28 -85 35 -56 10 -62 10 -106 -15 -44 -25 -68
-59 -91 -129 -4 -9 -12 -17 -19 -17 -19 0 -58 62 -65 104 -5 35 -3 39 82 121
75 71 87 86 76 99 -14 17 -37 10 -61 -19 -18 -21 -114 -85 -128 -85 -18 0 -32
-36 -32 -82 0 -49 58 -160 98 -186 33 -22 67 -3 82 45 15 47 54 91 97 109 26
11 38 11 77 0 52 -16 172 -108 207 -158 12 -18 35 -47 52 -65 16 -17 41 -52
56 -76 87 -149 322 -196 430 -87 20 20 43 47 51 60 21 30 48 21 84 -28 15 -20
45 -62 68 -92 22 -30 66 -82 98 -115 31 -33 67 -79 78 -101 43 -85 102 -164
123 -164 36 0 183 42 244 70 96 44 140 82 160 137 40 108 69 162 106 199 53
52 54 89 3 110 -20 9 -61 14 -93 13 -120 -4 -205 31 -283 115 -33 34 -38 46
-38 86 0 58 32 134 66 156 34 23 137 15 189 -14 22 -12 77 -41 123 -63 l83
-40 44 21 c47 23 102 88 143 167 19 38 24 61 24 132 0 51 -7 106 -16 136 -9
28 -16 66 -16 86 0 34 -4 38 -56 65 -55 28 -56 29 -49 64 17 82 -1 140 -51
162 -29 13 -60 0 -134 -56 -25 -19 -50 -35 -56 -35 -12 -1 -135 49 -199 81
-22 11 -49 30 -60 42 -11 13 -35 33 -53 45 -33 23 -67 75 -58 90 3 5 26 14 52
20 l46 12 -3 102 c-2 66 2 117 11 145 10 31 10 48 3 65 -17 37 -206 159 -261
168 -97 16 -154 11 -210 -20z m-799 -244 c105 -48 183 -158 194 -273 l6 -65
-44 7 c-53 8 -52 8 -68 62 -19 66 -70 116 -152 148 -65 25 -75 27 -123 17 -67
-14 -133 -55 -171 -105 -16 -22 -39 -53 -51 -68 -15 -21 -23 -50 -27 -106 -9
-127 15 -207 82 -270 35 -33 130 -77 164 -76 41 1 126 43 179 89 26 23 61 44
78 48 34 7 87 -1 96 -16 9 -14 -62 -112 -121 -168 -84 -79 -111 -89 -240 -85
-60 2 -123 8 -141 14 -27 9 -100 82 -167 167 -25 31 -56 153 -63 248 -7 86 6
175 32 230 30 63 124 153 204 195 l75 40 103 -5 c81 -3 113 -9 155 -28z m-98
-162 c83 -20 111 -37 136 -86 26 -52 24 -78 -8 -111 -25 -26 -28 -38 -33 -124
-6 -108 -4 -105 -116 -169 -70 -40 -99 -43 -153 -16 -84 43 -131 135 -131 255
1 79 23 127 92 194 76 73 106 81 213 57z m400 -57 c9 -13 33 -49 54 -82 51
-76 77 -92 164 -100 47 -4 85 -15 112 -30 22 -13 59 -26 83 -29 62 -8 73 -21
70 -81 -3 -44 -7 -53 -31 -64 -33 -16 -130 -4 -232 28 -46 15 -107 21 -254 26
-170 6 -196 9 -213 26 -22 22 -24 78 -3 118 15 29 19 30 81 30 35 0 81 -7 101
-15 40 -17 73 -20 73 -6 0 5 -13 23 -30 39 -27 27 -30 37 -30 90 0 32 3 62 7
65 13 13 32 7 48 -15z m172 -397 c70 -2 87 -41 41 -100 -10 -13 -18 -30 -18
-38 0 -8 -18 -40 -39 -71 -47 -70 -82 -176 -83 -254 0 -32 -4 -58 -8 -58 -4 0
-15 9 -25 20 -10 11 -23 20 -29 20 -6 0 -33 16 -60 35 -27 19 -57 35 -65 35
-28 0 -181 83 -187 102 -4 13 18 40 85 104 50 47 111 115 136 150 l46 64 82
-4 c45 -2 101 -5 124 -5z"/>
<path d="M1620 2314 c-70 -28 -116 -146 -75 -188 9 -8 41 -23 71 -33 54 -17
57 -16 112 2 36 13 58 26 60 38 8 40 -91 198 -122 196 -6 0 -27 -7 -46 -15z
m82 -89 c30 -62 19 -79 -52 -83 -61 -4 -72 6 -59 51 14 49 37 77 64 77 20 0
30 -10 47 -45z"/>
</g>
</svg>
